<svg width="40" height="40" viewBox="0 0 40 40" fill="none" xmlns="http://www.w3.org/2000/svg">
<g clip-path="url(#clip0_458_584)">
<path d="M30.1001 38.2609H32.8667C34.2667 38.2609 35.4168 37.1304 35.5834 35.7044L38.3334 7.04348H30.0001V0H26.7168V7.04348H18.4334L18.9334 11.113C21.7834 11.9304 24.4501 13.4087 26.0501 15.0435C28.4501 17.513 30.1001 20.0696 30.1001 24.2435V38.2609ZM1.66675 36.5217V34.7826H26.7168V36.5217C26.7168 37.4609 25.9667 38.2609 25.0001 38.2609H3.33341C2.41675 38.2609 1.66675 37.4609 1.66675 36.5217ZM26.7168 24.3478C26.7168 10.4348 1.66675 10.4348 1.66675 24.3478H26.7168ZM1.66675 27.8261H26.6667V31.3043H1.66675V27.8261Z" fill="#FF9500"/>
</g>
<defs>
<clipPath id="clip0_458_584">
<rect width="40" height="40" fill="white"/>
</clipPath>
</defs>
</svg>
