<svg width="40" height="40" viewBox="0 0 40 40" fill="none" xmlns="http://www.w3.org/2000/svg">
<path d="M28.3333 3.33301H11.6666C9.83325 3.33301 8.33325 4.83301 8.33325 6.66634V33.333C8.33325 35.1663 9.83325 36.6663 11.6666 36.6663H28.3333C30.1666 36.6663 31.6666 35.1663 31.6666 33.333V6.66634C31.6666 4.83301 30.1666 3.33301 28.3333 3.33301ZM28.3333 33.333H11.6666V6.66634H28.3333V33.333ZM16.9999 14.9997C14.9999 14.9997 13.3333 16.6663 13.3333 18.6663C13.3333 21.1663 15.6666 23.1663 18.9999 26.333L19.9999 27.1663L20.9999 26.333C24.3333 23.1663 26.6666 21.1663 26.6666 18.6663C26.6666 16.4997 24.9999 14.9997 22.9999 14.9997C21.8333 14.9997 20.6666 15.4997 19.9999 16.333C19.3333 15.4997 18.1666 14.9997 16.9999 14.9997Z" fill="#FFDD00"/>
</svg>
